<svg id="eTf6pF1EWwd1" xmlns="http://www.w3.org/2000/svg" xmlns:xlink="http://www.w3.org/1999/xlink" viewBox="0 0 468 566.9" shape-rendering="geometricPrecision" text-rendering="geometricPrecision"><defs><linearGradient id="eTf6pF1EWwd7-fill" x1="282.7466" y1="318.2744" x2="418.9241" y2="318.2744" spreadMethod="pad" gradientUnits="userSpaceOnUse" gradientTransform="translate(0 0)"><stop id="eTf6pF1EWwd7-fill-0" offset="0%" stop-color="#00537e"/><stop id="eTf6pF1EWwd7-fill-1" offset="99%" stop-color="#122147"/></linearGradient><linearGradient id="eTf6pF1EWwd8-fill" x1="47.8465" y1="424.5945" x2="183.9385" y2="424.5945" spreadMethod="pad" gradientUnits="userSpaceOnUse" gradientTransform="translate(0 0)"><stop id="eTf6pF1EWwd8-fill-0" offset="0%" stop-color="#00537e"/><stop id="eTf6pF1EWwd8-fill-1" offset="99%" stop-color="#122147"/></linearGradient><linearGradient id="eTf6pF1EWwd17-fill" x1="306.4" y1="311.9435" x2="430.2193" y2="311.9435" spreadMethod="pad" gradientUnits="userSpaceOnUse" gradientTransform="translate(0 0)"><stop id="eTf6pF1EWwd17-fill-0" offset="0%" stop-color="#00537e"/><stop id="eTf6pF1EWwd17-fill-1" offset="99%" stop-color="#122147"/></linearGradient><linearGradient id="eTf6pF1EWwd19-fill" x1="162.6" y1="346.8813" x2="315.3817" y2="346.8813" spreadMethod="pad" gradientUnits="userSpaceOnUse" gradientTransform="translate(0 0)"><stop id="eTf6pF1EWwd19-fill-0" offset="0%" stop-color="#00537e"/><stop id="eTf6pF1EWwd19-fill-1" offset="99%" stop-color="#122147"/></linearGradient><linearGradient id="eTf6pF1EWwd21-fill" x1="142" y1="297.25" x2="338.62" y2="297.25" spreadMethod="pad" gradientUnits="userSpaceOnUse" gradientTransform="translate(0 0)"><stop id="eTf6pF1EWwd21-fill-0" offset="0%" stop-color="#00537e"/><stop id="eTf6pF1EWwd21-fill-1" offset="99%" stop-color="#122147"/></linearGradient><linearGradient id="eTf6pF1EWwd25-fill" x1="182.2" y1="275.9" x2="298.2" y2="275.9" spreadMethod="pad" gradientUnits="userSpaceOnUse" gradientTransform="translate(0 0)"><stop id="eTf6pF1EWwd25-fill-0" offset="0%" stop-color="#00537e"/><stop id="eTf6pF1EWwd25-fill-1" offset="99%" stop-color="#122147"/></linearGradient><linearGradient id="eTf6pF1EWwd27-fill" x1="-58" y1="0" x2="58" y2="0" spreadMethod="pad" gradientUnits="userSpaceOnUse" gradientTransform="translate(0 0)"><stop id="eTf6pF1EWwd27-fill-0" offset="0%" stop-color="#00537e"/><stop id="eTf6pF1EWwd27-fill-1" offset="99%" stop-color="#122147"/></linearGradient><linearGradient id="eTf6pF1EWwd29-fill" x1="212.8" y1="248.15" x2="267.6" y2="248.15" spreadMethod="pad" gradientUnits="userSpaceOnUse" gradientTransform="translate(0 0)"><stop id="eTf6pF1EWwd29-fill-0" offset="0%" stop-color="#00537e"/><stop id="eTf6pF1EWwd29-fill-1" offset="99%" stop-color="#122147"/></linearGradient><linearGradient id="eTf6pF1EWwd30-fill" x1="212.8" y1="224.1" x2="267.6" y2="224.1" spreadMethod="pad" gradientUnits="userSpaceOnUse" gradientTransform="translate(0 0)"><stop id="eTf6pF1EWwd30-fill-0" offset="0%" stop-color="#00537e"/><stop id="eTf6pF1EWwd30-fill-1" offset="99%" stop-color="#122147"/></linearGradient><linearGradient id="eTf6pF1EWwd32-fill" x1="225.93" y1="200.25" x2="254.53" y2="200.25" spreadMethod="pad" gradientUnits="userSpaceOnUse" gradientTransform="translate(0 0)"><stop id="eTf6pF1EWwd32-fill-0" offset="0%" stop-color="#00537e"/><stop id="eTf6pF1EWwd32-fill-1" offset="99%" stop-color="#122147"/></linearGradient><linearGradient id="eTf6pF1EWwd33-fill" x1="211.62" y1="159.7625" x2="268.92" y2="159.7625" spreadMethod="pad" gradientUnits="userSpaceOnUse" gradientTransform="translate(0 0)"><stop id="eTf6pF1EWwd33-fill-0" offset="0%" stop-color="#00537e"/><stop id="eTf6pF1EWwd33-fill-1" offset="99%" stop-color="#122147"/></linearGradient><linearGradient id="eTf6pF1EWwd35-fill" x1="259.4" y1="124.5766" x2="325.327" y2="124.5766" spreadMethod="pad" gradientUnits="userSpaceOnUse" gradientTransform="translate(0 0)"><stop id="eTf6pF1EWwd35-fill-0" offset="0%" stop-color="#00537e"/><stop id="eTf6pF1EWwd35-fill-1" offset="99%" stop-color="#122147"/></linearGradient><linearGradient id="eTf6pF1EWwd36-fill" x1="163.5" y1="169.582" x2="218.4154" y2="169.582" spreadMethod="pad" gradientUnits="userSpaceOnUse" gradientTransform="translate(0 0)"><stop id="eTf6pF1EWwd36-fill-0" offset="0%" stop-color="#00537e"/><stop id="eTf6pF1EWwd36-fill-1" offset="99%" stop-color="#122147"/></linearGradient><linearGradient id="eTf6pF1EWwd37-fill" x1="170.76" y1="117.8" x2="226.36" y2="117.8" spreadMethod="pad" gradientUnits="userSpaceOnUse" gradientTransform="translate(0 0)"><stop id="eTf6pF1EWwd37-fill-0" offset="0%" stop-color="#00537e"/><stop id="eTf6pF1EWwd37-fill-1" offset="99%" stop-color="#122147"/></linearGradient><linearGradient id="eTf6pF1EWwd38-fill" x1="257.58" y1="174.65" x2="302.51" y2="174.65" spreadMethod="pad" gradientUnits="userSpaceOnUse" gradientTransform="translate(0 0)"><stop id="eTf6pF1EWwd38-fill-0" offset="0%" stop-color="#00537e"/><stop id="eTf6pF1EWwd38-fill-1" offset="99%" stop-color="#122147"/></linearGradient><linearGradient id="eTf6pF1EWwd50-fill" x1="211.6" y1="146.5975" x2="268.84" y2="146.5975" spreadMethod="pad" gradientUnits="userSpaceOnUse" gradientTransform="translate(0 0)"><stop id="eTf6pF1EWwd50-fill-0" offset="0%" stop-color="#00537e"/><stop id="eTf6pF1EWwd50-fill-1" offset="99%" stop-color="#122147"/></linearGradient><linearGradient id="eTf6pF1EWwd51-fill" x1="225.9" y1="132" x2="254.5" y2="132" spreadMethod="pad" gradientUnits="userSpaceOnUse" gradientTransform="translate(0 0)"><stop id="eTf6pF1EWwd51-fill-0" offset="0%" stop-color="#00537e"/><stop id="eTf6pF1EWwd51-fill-1" offset="99%" stop-color="#122147"/></linearGradient><linearGradient id="eTf6pF1EWwd52-fill" x1="225.9" y1="109.55" x2="254.5" y2="109.55" spreadMethod="pad" gradientUnits="userSpaceOnUse" gradientTransform="translate(0 0)"><stop id="eTf6pF1EWwd52-fill-0" offset="0%" stop-color="#00537e"/><stop id="eTf6pF1EWwd52-fill-1" offset="99%" stop-color="#122147"/></linearGradient></defs><g id="eTf6pF1EWwd2" transform="translate(0-18.004669)" opacity="0"><path d="M129.2,280.9v12.2c0,12.9,7.7,24.8,20.6,34.2v11.5l.6.4-36.5,16.5-.9-.5c-26.7-12.5-37.1-8.7-54.2,0-1.1.5-2.3,1-3.3,1.6-26.9,15-27.3,65.4-1,112.6s69.4,73.3,96.3,58.4c1.5-.8,2.9-1.8,4.3-2.9h.1c10.9-6,21.6-15.8,25.7-33.4l161.6-73.2c15.7,8.1,31.1,9.8,43.3,3c1.5-.8,2.9-1.8,4.3-2.9h.1c16.1-8.9,32-25.9,26.3-64.7s-41.7-92.5-68.4-105c-21.9-10.3-32.9-9.5-45.6-4.1-8.7-5.7-18.2-10.1-28.2-13c41-10.8,69-35.5,69-65c0-39.7-50.8-70.8-115.7-70.8s-115.9,31.2-115.9,70.9c0,29.5,28,54.2,69,65-30.7,9.4-51.5,28-51.5,49.2" fill="#122147"/><path d="M217.5,163.1l-.4.2c.2-.1.3-.1.4-.2Zm-4.1-7.3l.4-.2c-.1.1-.2.2-.4.2Z" fill="#7bced4"/><path d="M263.9,159.5l-.2-.1-.1-.1-.1-.1h-.1l.5.3v0Zm-5.5,6.3l-.2-.1c.1,0,.2,0,.2.1Z" fill="#fff"/></g><g id="eTf6pF1EWwd6" transform="translate(0-20.004608)" opacity="0"><path d="M399.5,291.1c-25.2-45.3-65.9-71.2-92.9-59.9-1.1.5-2.3,1-3.4,1.6-26.9,15-27.3,65.4-1,112.6s69.4,73.3,96.3,58.4c1.5-.8,2.9-1.8,4.3-2.9c22.5-17.9,21.5-65.3-3.3-109.8v0Zm-12.9,95.3c-21.1,11.8-54.7-8.4-75.1-45s-19.9-75.8,1.2-87.6s54.7,8.4,75.1,45s19.9,75.8-1.2,87.6Z" fill="url(#eTf6pF1EWwd7-fill)"/><path d="M164.5,397.5c-25.2-45.3-65.9-71.2-92.9-60-1.1.5-2.3,1-3.3,1.6-26.9,15-27.3,65.4-1,112.6s69.4,73.3,96.3,58.4c1.5-.8,2.9-1.8,4.3-2.9c22.4-17.8,21.4-65.2-3.4-109.7v0Zm-12.8,95.3c-21.1,11.8-54.7-8.4-75.1-45s-19.9-75.8,1.2-87.6s54.7,8.4,75.1,45s19.8,75.8-1.2,87.6Z" fill="url(#eTf6pF1EWwd8-fill)"/><path d="M387.8,298.8c-20.1-36.1-53-56.1-74.1-45.5L126.6,338c26.6,13.3,61.8,66.3,67.4,104.5c1.9,12.6,1.4,22.8-.6,31.3L383,388.1c1.3-.5,2.5-1,3.7-1.7c21-11.8,21.5-51,1.1-87.6v0Z" fill="#00537e"/><path d="M167.7,507.2c10.9-6.1,21.7-15.8,25.8-33.4l-10.8,4.9c-2,12.2-7,22.2-15,28.5Z" fill="#122147"/><path d="M194.1,442.5c-5.6-38.3-40.9-91.3-67.4-104.5l-12.5,5.7c18.2,10.3,36.5,29.2,50.3,53.9c16,28.8,22.1,58.8,18.3,81.2l10.8-4.9c1.9-8.6,2.3-18.8.5-31.4Z" fill="#00537e"/><path d="M214.2,161.9c.3.4.7.7,1.1,1c.5.4,1.2.5,1.8.4l-45.3,20.2c17.4,9.6,41.8,15.7,68.3,15.7c19.5,0,37.9-3.3,53.2-8.9c3.2-1.1,6.2-2.4,9.1-3.8c19.9-9.3,32.7-22.7,32.7-37.5c0-27.2-43.5-50.1-95-50.1-17.4-.1-34.8,2.7-51.3,8.2l-12.4-8.6-4.7,6.8l7.8,5.5C158.6,120,145,133.9,145,149c0,10.8,6.8,20.8,18.3,29.1l50-22.3c-.5.4-.9,1.1-.8,1.8" fill="none"/></g><g id="eTf6pF1EWwd13" transform="translate(0-20.003555)" opacity="0"><path d="M125.7,337.5c-26.7-12.5-37.1-8.7-54.2,0c12.3-5.1,27.4-2.5,42.6,6.1l12.5-5.7c-.3-.1-.6-.3-.9-.4Z" fill="#122147"/><path d="M194.1,442.5c-5.6-38.3-40.9-91.3-67.4-104.5l-12.5,5.7c18.2,10.3,36.5,29.2,50.3,53.9c16,28.8,22.1,58.8,18.3,81.2l10.8-4.9c1.9-8.6,2.3-18.8.5-31.4Z" fill="#122147"/></g><g id="eTf6pF1EWwd16" transform="translate(0-20.003565)" opacity="0"><path d="M429,336.1c-5.7-38.7-41.7-92.5-68.4-105s-37.1-8.7-54.2,0c27-11.2,67.7,14.7,92.9,60c24.8,44.5,25.8,91.9,3.2,109.7h.1c16.3-9,32.2-25.9,26.4-64.7v0Z" fill="url(#eTf6pF1EWwd17-fill)"/></g><g id="eTf6pF1EWwd18" transform="translate(0-20.001332)" opacity="0"><path d="M162.6,309.7v11.4c13.1,7.9,26.7,20.4,37.7,28.9s37.7,26.1,54.4,31.9s38.9,0,50.4-18.2s10.3-38,10.2-52.1c-18,12.1-44.9,19.8-75,19.8-31.7-.1-59.7-8.6-77.7-21.7v0Z" fill="url(#eTf6pF1EWwd19-fill)"/></g><g id="eTf6pF1EWwd20" transform="translate(0-20.000031)" opacity="0"><path d="M240.2,319.1c-54.2,0-98.2-25-98.2-55.9v12.2c0,12.9,7.7,24.8,20.6,34.2c18,13.2,46,21.7,77.6,21.7c30.1,0,57-7.7,75-19.8c14.5-9.7,23.2-22.3,23.2-36.1v-12.2c0,30.9-44,55.9-98.2,55.9v0Z" fill="url(#eTf6pF1EWwd21-fill)"/></g><g id="eTf6pF1EWwd22" transform="translate(0-20.000005)" opacity="0"><path d="M240.2,207.3c-54.2,0-98.2,25-98.2,55.9s44,55.9,98.2,55.9s98.2-25,98.2-55.9-44-55.9-98.2-55.9v0Zm58,56.4c0,17.1-26,31-58,31s-58-13.9-58-31v-6.8c0-17.1,26-31.1,58-31.1s58,13.9,58,31.1v6.8Z" fill="#00537e"/></g><g id="eTf6pF1EWwd24" transform="translate(0-19.999994)" opacity="0"><path d="M240.2,288c-32,0-58-13.9-58-31v6.8c0,17.1,26,31,58,31s58-13.9,58-31v-6.8c0,17.1-26,31-58,31v0Z" fill="url(#eTf6pF1EWwd25-fill)"/></g><g id="eTf6pF1EWwd26" transform="translate(0-19.999994)" opacity="0"><ellipse rx="58" ry="31" transform="translate(240.2 256.9)" fill="url(#eTf6pF1EWwd27-fill)"/></g><g id="eTf6pF1EWwd28" transform="translate(0-20.000006)" opacity="0"><path d="M240.2,238.7c-15.1,0-27.4-6.6-27.4-14.7v33.6c0,8.1,12.3,14.7,27.4,14.7s27.4-6.6,27.4-14.7v-33.6c0,8.1-12.3,14.7-27.4,14.7v0Z" fill="url(#eTf6pF1EWwd29-fill)"/><path d="M240.2,209.4c-15.1,0-27.4,6.6-27.4,14.7s12.3,14.7,27.4,14.7s27.4-6.6,27.4-14.7-12.3-14.7-27.4-14.7v0Zm0,20.5c-6.8,0-12.4-2.5-13.9-5.9-.3-.6-.4-1.2-.4-1.8c0-4.2,6.4-7.6,14.3-7.6s14.3,3.4,14.3,7.6c0,.6-.1,1.2-.4,1.8-1.5,3.4-7.1,5.9-13.9,5.9v0Z" fill="url(#eTf6pF1EWwd30-fill)"/></g><g id="eTf6pF1EWwd31" transform="translate(0-20.000008)" opacity="0"><path d="M254.5,170.7c-9.3,2.7-19.2,2.7-28.5,0v51.5c0,4.2,6.4,7.6,14.3,7.6s14.3-3.4,14.3-7.6l-.1-51.5Z" fill="url(#eTf6pF1EWwd32-fill)"/><path d="M267,152.1c-1.7,2.3-3.9,4.1-6.4,5.4-5.2,2.8-12.4,4.5-20.3,4.5s-15.1-1.7-20.3-4.5c-2.5-1.3-4.7-3.1-6.4-5.4-1.2-1.6-1.8-3.4-1.9-5.4v10.8c0,5.7,5.8,10.6,14.4,13.3c9.3,2.7,19.2,2.7,28.5,0c8.6-2.6,14.4-7.6,14.4-13.3v-10.8c-.2,1.9-.8,3.8-2,5.4Z" fill="url(#eTf6pF1EWwd33-fill)"/></g><g id="eTf6pF1EWwd34" transform="translate(0-20.000023)" opacity="0"><path d="M322.6,108.4c-.6-.5-1.5-.6-2.2-.2l-61,27.2c2.9,1.3,5.5,3.3,7.4,5.8L324,115.7c.8-.3,1.3-1.1,1.2-1.9.1-2.2-.9-4.1-2.6-5.4Z" fill="url(#eTf6pF1EWwd35-fill)"/><path d="M215.7,156.1c-.5-.4-1.2-.5-1.8-.4l-.4.2-50,22.3c2.7,1.9,5.5,3.7,8.4,5.3l45.3-20.2.4-.2c.5-.4.9-1.1.8-1.8c0-2.1-1-4-2.7-5.2v0Z" fill="url(#eTf6pF1EWwd36-fill)"/><path d="M188.9,107.1l-11.7-8.2-.1-.1-.1-.1-.1-.1-.1-.1h-.1l-.1-.1h-1.1l-.3.1c-2,.7-3.5,2.3-4.1,4.3c0,.1,0,.2-.1.2v1.3c0,0,0,.1.1.1l.1.1.1.1.1.1c.2.2.4.3.7.4v.1l7.8,5.5l38,26.5c2.7-1.8,5.6-3.1,8.7-4l-37.7-26.1v0Z" fill="url(#eTf6pF1EWwd37-fill)"/><path d="M264,159.6l-.5-.4h-1.3l-.3.1c-2,.7-3.5,2.3-4.1,4.3v1.5c0,0,0,.1.1.1l.1.1.1.1.2.2.2.1l35,24.4c3.2-1.1,6.2-2.4,9.1-3.8L264,159.6Z" fill="url(#eTf6pF1EWwd38-fill)"/></g><g id="eTf6pF1EWwd39" transform="translate(0-20)" opacity="0"><path d="M240.2,78.2c-64.9,0-115.7,31.1-115.7,70.8s50.8,70.8,115.7,70.8s115.7-31.1,115.7-70.8-50.8-70.8-115.7-70.8Zm62.3,108.3c-2.9,1.3-5.9,2.6-9.1,3.8-15.3,5.6-33.7,8.9-53.2,8.9-26.5,0-50.9-6.1-68.3-15.7-2.9-1.6-5.7-3.4-8.4-5.3-11.4-8.3-18.3-18.4-18.3-29.1c0-15.1,13.6-29,34.5-38.3l-7.8-5.5l4.7-6.8l12.3,8.6c16.5-5.5,33.9-8.3,51.3-8.2c51.5,0,95,22.9,95,50.1c0,14.7-12.8,28.2-32.7,37.5v0Z" fill="#00537e"/></g><g id="eTf6pF1EWwd41" transform="translate(0-19.999991)" opacity="0"><path d="M164.7,466.8c1.5-.8,2.9-1.8,4.3-2.8c22.6-17.8,21.6-65.2-3.2-109.7-25.2-45.3-65.9-71.2-92.9-60-1.1.5-2.3,1-3.3,1.6m83.3,153.7c-21.1,11.8-54.7-8.4-75.1-45s-19.9-75.9,1.2-87.6s54.7,8.4,75.1,45s19.9,75.8-1.2,87.6v0Z" fill="none" stroke="#fff" stroke-width="2.88" stroke-linecap="round" stroke-linejoin="round"/><path d="M384.1,344.9c1.3-.5,2.5-1,3.7-1.7-1.1.6-2.3,1.2-3.7,1.7ZM381.7,244c1.4,2,2.8,4.1,4.1,6.2-1.3-2.2-2.6-4.2-4.1-6.2Zm-67.4,56.9c-1,4.2-2.3,8.4-4.1,12.3c1.8-3.9,3.1-8.1,4.1-12.3Z" fill="none" stroke="#fff" stroke-width="2.88" stroke-linecap="round" stroke-linejoin="round"/><path d="M318.6,185.4c9.3,6.7,15.9,14.6,19,23.3c2.9.8,5.8,1.9,8.6,3.3c12.4,5.9,25,17,35.5,32c1.4,2,2.8,4.1,4.1,6.2c1.1,1.8,2.2,3.6,3.2,5.4c20.4,36.6,19.9,75.8-1.2,87.6-1.2.7-2.4,1.2-3.7,1.7l-27.7,12.5c15.7,8.1,31.1,9.8,43.3,3c1.5-.8,2.9-1.8,4.3-2.9" fill="none" stroke="#fff" stroke-width="2.88" stroke-linecap="round" stroke-linejoin="round"/><path d="M127.8,294.8l36.5-16.5c12.9,7.9,26.3,20.1,37.1,28.5c10.9,8.5,37.7,26.1,54.4,31.9s38.9,0,50.4-18.2c1.5-2.3,2.8-4.7,3.9-7.2c1.8-4,3.2-8.1,4.1-12.3c2.8-11.9,2.2-23.4,2.2-32.6c14.5-9.7,23.2-22.3,23.2-36.1v-12.3c0-3.8-.7-7.7-2-11.3c2.9.8,5.8,1.9,8.6,3.3c12.4,5.9,25,17,35.5,32c1.4,2,2.8,4.1,4.1,6.2c1.1,1.8,2.2,3.6,3.2,5.4c20.4,36.6,19.9,75.8-1.2,87.6-1.2.6-2.4,1.2-3.6,1.7h-.1l-27.7,12.5-161.7,73.1M385.9,250.2c1.1,1.8,2.2,3.6,3.2,5.4-1.1-1.8-2.1-3.6-3.2-5.4Z" fill="none" stroke="#fff" stroke-width="2.88" stroke-linecap="round" stroke-linejoin="round"/><path d="M385.9,250.2c1.1,1.8,2.2,3.6,3.2,5.4-1.1-1.8-2.1-3.6-3.2-5.4Zm-4.2-6.2c-10.5-14.9-23.2-26.1-35.5-32c12.4,5.9,25,17,35.5,32Z" fill="none" stroke="#fff" stroke-width="2.88" stroke-linecap="round" stroke-linejoin="round"/><path d="M381.7,244c-10.5-14.9-23.2-26.1-35.5-32c12.4,5.9,25,17,35.5,32ZM127.8,294.8l-.9-.5c-26.7-12.5-37.1-8.7-54.2,0c12.3-5.1,27.4-2.5,42.6,6.1c18.2,10.3,36.6,29.2,50.3,53.9c16.1,28.8,22.1,58.8,18.3,81.2-2,12.3-7,22.3-15,28.6h.1c10.9-6,21.6-15.8,25.7-33.3" fill="none" stroke="#fff" stroke-width="2.88" stroke-linecap="round" stroke-linejoin="round"/><path d="M387.9,343.2c21.1-11.8,21.6-51,1.2-87.6-13.8-24.7-33.5-41.9-51.4-46.9c1.3,3.6,2,7.4,2,11.3v12.2c0,13.8-8.7,26.3-23.2,36.1.1,9.2.6,20.7-2.2,32.6" fill="none" stroke="#fff" stroke-width="2.88" stroke-linecap="round" stroke-linejoin="round"/></g><g id="eTf6pF1EWwd49" transform="translate(0-19.99999)" opacity="0"><path d="M266.8,141.1c-2-2.5-4.5-4.5-7.4-5.8-6-2.7-12.6-4.1-19.2-4-4.7,0-9.3.6-13.8,1.9-3.1.9-6,2.2-8.7,4-3.8,2.6-6.1,5.9-6.1,9.4c0,1.9.7,3.8,1.9,5.4.7,1,1.5,1.9,2.5,2.7c1.2,1.1,2.6,2,4,2.7c1.7.9,3.4,1.6,5.3,2.2c4.9,1.6,9.9,2.3,15,2.3c3.7,0,7.5-.4,11.1-1.2c3.2-.7,6.3-1.8,9.2-3.3l.3-.1c2.4-1.3,4.5-3.1,6.2-5.2c1.2-1.6,1.8-3.4,1.9-5.4-.2-2-.9-4-2.2-5.6v0ZM242,154.3c-.6,0-1.2.1-1.8.1-.9,0-1.8,0-2.7-.1-4.7-.5-8.5-2.2-10.4-4.4-.7-.8-1.2-1.9-1.2-3.1c0-1,.4-2,1-2.8l.1-.1c1.5-2,4.5-3.6,8.3-4.3c1.6-.3,3.2-.5,4.9-.5c2.7,0,5.4.4,8,1.3c2.1.6,3.9,1.9,5.3,3.6.6.8,1,1.7,1,2.7v.1c-.1,1.8-1.1,3.4-2.6,4.4-2.9,1.9-6.4,3-9.9,3.1v0Z" fill="url(#eTf6pF1EWwd50-fill)"/><path d="M240.2,117.2c-7.9,0-14.3-3.4-14.3-7.6v37.2c0,4.2,6.4,7.6,14.3,7.6s14.3-3.4,14.3-7.6v-37.2c0,4.2-6.4,7.6-14.3,7.6Z" fill="url(#eTf6pF1EWwd51-fill)"/><path d="M240.2,101.9c-7.9,0-14.3,3.4-14.3,7.7c0,4.2,6.4,7.6,14.3,7.6s14.3-3.4,14.3-7.6-6.4-7.7-14.3-7.7Z" fill="url(#eTf6pF1EWwd52-fill)"/></g><g id="eTf6pF1EWwd53" transform="translate(0-20.000002)" opacity="0"><path d="M325.3,66.5c-36.5,0-66.2,15.8-66.2,35.4s29.6,35.4,66.2,35.4s66.2-15.8,66.2-35.4-29.6-35.4-66.2-35.4Z" fill="#7bced4"/></g><g id="eTf6pF1EWwd55" transform="translate(0-20.000003)" opacity="0"><path d="M403.9,357.6c16.1-8.9,32.1-25.9,26.4-64.6s-41.7-92.5-68.4-105c-21.9-10.2-32.9-9.5-45.6-4.1.8.5,1.6,1.1,2.3,1.6M241.4,35c-64.9,0-115.7,31.1-115.7,70.8c0,34.4,38.2,62.3,90.6,69.2c3.5.5,7.1.8,10.8,1.1l1.1.1c4.3.3,8.7.4,13.2.4s8.9-.2,13.2-.4l1.1-.1c3.7-.3,7.3-.6,10.8-1.1c52.4-6.8,90.6-34.8,90.6-69.2.1-39.7-50.8-70.8-115.7-70.8v0Z" fill="none" stroke="#fff" stroke-width="2.88" stroke-linecap="round" stroke-linejoin="round"/></g>
<script><![CDATA[
!function(t,n){"object"==typeof exports&&"undefined"!=typeof module?module.exports=n():"function"==typeof define&&define.amd?define(n):((t="undefined"!=typeof globalThis?globalThis:t||self).__SVGATOR_PLAYER__=t.__SVGATOR_PLAYER__||{},t.__SVGATOR_PLAYER__["5c7f360c"]=n())}(this,(function(){"use strict";function t(t,n){var e=Object.keys(t);if(Object.getOwnPropertySymbols){var r=Object.getOwnPropertySymbols(t);n&&(r=r.filter((function(n){return Object.getOwnPropertyDescriptor(t,n).enumerable}))),e.push.apply(e,r)}return e}function n(n){for(var e=1;e<arguments.length;e++){var r=null!=arguments[e]?arguments[e]:{};e%2?t(Object(r),!0).forEach((function(t){o(n,t,r[t])})):Object.getOwnPropertyDescriptors?Object.defineProperties(n,Object.getOwnPropertyDescriptors(r)):t(Object(r)).forEach((function(t){Object.defineProperty(n,t,Object.getOwnPropertyDescriptor(r,t))}))}return n}function e(t){return(e="function"==typeof Symbol&&"symbol"==typeof Symbol.iterator?function(t){return typeof t}:function(t){return t&&"function"==typeof Symbol&&t.constructor===Symbol&&t!==Symbol.prototype?"symbol":typeof t})(t)}function r(t,n){if(!(t instanceof n))throw new TypeError("Cannot call a class as a function")}function i(t,n){for(var e=0;e<n.length;e++){var r=n[e];r.enumerable=r.enumerable||!1,r.configurable=!0,"value"in r&&(r.writable=!0),Object.defineProperty(t,r.key,r)}}function u(t,n,e){return n&&i(t.prototype,n),e&&i(t,e),t}function o(t,n,e){return n in t?Object.defineProperty(t,n,{value:e,enumerable:!0,configurable:!0,writable:!0}):t[n]=e,t}function a(t){return(a=Object.setPrototypeOf?Object.getPrototypeOf:function(t){return t.__proto__||Object.getPrototypeOf(t)})(t)}function l(t,n){return(l=Object.setPrototypeOf||function(t,n){return t.__proto__=n,t})(t,n)}function s(){if("undefined"==typeof Reflect||!Reflect.construct)return!1;if(Reflect.construct.sham)return!1;if("function"==typeof Proxy)return!0;try{return Boolean.prototype.valueOf.call(Reflect.construct(Boolean,[],(function(){}))),!0}catch(t){return!1}}function f(t,n,e){return(f=s()?Reflect.construct:function(t,n,e){var r=[null];r.push.apply(r,n);var i=new(Function.bind.apply(t,r));return e&&l(i,e.prototype),i}).apply(null,arguments)}function c(t,n){if(n&&("object"==typeof n||"function"==typeof n))return n;if(void 0!==n)throw new TypeError("Derived constructors may only return object or undefined");return function(t){if(void 0===t)throw new ReferenceError("this hasn't been initialised - super() hasn't been called");return t}(t)}function h(t,n,e){return(h="undefined"!=typeof Reflect&&Reflect.get?Reflect.get:function(t,n,e){var r=function(t,n){for(;!Object.prototype.hasOwnProperty.call(t,n)&&null!==(t=a(t)););return t}(t,n);if(r){var i=Object.getOwnPropertyDescriptor(r,n);return i.get?i.get.call(e):i.value}})(t,n,e||t)}function v(t){return function(t){if(Array.isArray(t))return y(t)}(t)||function(t){if("undefined"!=typeof Symbol&&null!=t[Symbol.iterator]||null!=t["@@iterator"])return Array.from(t)}(t)||function(t,n){if(!t)return;if("string"==typeof t)return y(t,n);var e=Object.prototype.toString.call(t).slice(8,-1);"Object"===e&&t.constructor&&(e=t.constructor.name);if("Map"===e||"Set"===e)return Array.from(t);if("Arguments"===e||/^(?:Ui|I)nt(?:8|16|32)(?:Clamped)?Array$/.test(e))return y(t,n)}(t)||function(){throw new TypeError("Invalid attempt to spread non-iterable instance.\nIn order to be iterable, non-array objects must have a [Symbol.iterator]() method.")}()}function y(t,n){(null==n||n>t.length)&&(n=t.length);for(var e=0,r=new Array(n);e<n;e++)r[e]=t[e];return r}Number.isInteger||(Number.isInteger=function(t){return"number"==typeof t&&isFinite(t)&&Math.floor(t)===t}),Number.EPSILON||(Number.EPSILON=2220446049250313e-31);var g=d(Math.pow(10,-6));function d(t){var n=arguments.length>1&&void 0!==arguments[1]?arguments[1]:6;if(Number.isInteger(t))return t;var e=Math.pow(10,n);return Math.round((+t+Number.EPSILON)*e)/e}function p(t,n){var e=arguments.length>2&&void 0!==arguments[2]?arguments[2]:g;return Math.abs(t-n)<e}var m=Math.PI/180;function b(t){return t}function w(t,n,e){var r=1-e;return 3*e*r*(t*r+n*e)+e*e*e}function x(){var t=arguments.length>0&&void 0!==arguments[0]?arguments[0]:0,n=arguments.length>1&&void 0!==arguments[1]?arguments[1]:0,e=arguments.length>2&&void 0!==arguments[2]?arguments[2]:1,r=arguments.length>3&&void 0!==arguments[3]?arguments[3]:1;return t<0||t>1||e<0||e>1?null:p(t,n)&&p(e,r)?b:function(i){if(i<=0)return t>0?i*n/t:0===n&&e>0?i*r/e:0;if(i>=1)return e<1?1+(i-1)*(r-1)/(e-1):1===e&&t<1?1+(i-1)*(n-1)/(t-1):1;for(var u,o=0,a=1;o<a;){var l=w(t,e,u=(o+a)/2);if(p(i,l))break;l<i?o=u:a=u}return w(n,r,u)}}function A(){return 1}function k(t){return 1===t?1:0}function _(){var t=arguments.length>0&&void 0!==arguments[0]?arguments[0]:1,n=arguments.length>1&&void 0!==arguments[1]?arguments[1]:0;if(1===t){if(0===n)return k;if(1===n)return A}var e=1/t;return function(t){return t>=1?1:(t+=n*e)-t%e}}var S=Math.sin,O=Math.cos,j=Math.acos,M=Math.asin,P=Math.tan,E=Math.atan2,I=Math.PI/180,R=180/Math.PI,F=Math.sqrt,N=function(){function t(){var n=arguments.length>0&&void 0!==arguments[0]?arguments[0]:1,e=arguments.length>1&&void 0!==arguments[1]?arguments[1]:0,i=arguments.length>2&&void 0!==arguments[2]?arguments[2]:0,u=arguments.length>3&&void 0!==arguments[3]?arguments[3]:1,o=arguments.length>4&&void 0!==arguments[4]?arguments[4]:0,a=arguments.length>5&&void 0!==arguments[5]?arguments[5]:0;r(this,t),this.m=[n,e,i,u,o,a],this.i=null,this.w=null,this.s=null}return u(t,[{key:"determinant",get:function(){var t=this.m;return t[0]*t[3]-t[1]*t[2]}},{key:"isIdentity",get:function(){if(null===this.i){var t=this.m;this.i=1===t[0]&&0===t[1]&&0===t[2]&&1===t[3]&&0===t[4]&&0===t[5]}return this.i}},{key:"point",value:function(t,n){var e=this.m;return{x:e[0]*t+e[2]*n+e[4],y:e[1]*t+e[3]*n+e[5]}}},{key:"translateSelf",value:function(){var t=arguments.length>0&&void 0!==arguments[0]?arguments[0]:0,n=arguments.length>1&&void 0!==arguments[1]?arguments[1]:0;if(!t&&!n)return this;var e=this.m;return e[4]+=e[0]*t+e[2]*n,e[5]+=e[1]*t+e[3]*n,this.w=this.s=this.i=null,this}},{key:"rotateSelf",value:function(){var t=arguments.length>0&&void 0!==arguments[0]?arguments[0]:0;if(t%=360){var n=S(t*=I),e=O(t),r=this.m,i=r[0],u=r[1];r[0]=i*e+r[2]*n,r[1]=u*e+r[3]*n,r[2]=r[2]*e-i*n,r[3]=r[3]*e-u*n,this.w=this.s=this.i=null}return this}},{key:"scaleSelf",value:function(){var t=arguments.length>0&&void 0!==arguments[0]?arguments[0]:1,n=arguments.length>1&&void 0!==arguments[1]?arguments[1]:1;if(1!==t||1!==n){var e=this.m;e[0]*=t,e[1]*=t,e[2]*=n,e[3]*=n,this.w=this.s=this.i=null}return this}},{key:"skewSelf",value:function(t,n){if(n%=360,(t%=360)||n){var e=this.m,r=e[0],i=e[1],u=e[2],o=e[3];t&&(t=P(t*I),e[2]+=r*t,e[3]+=i*t),n&&(n=P(n*I),e[0]+=u*n,e[1]+=o*n),this.w=this.s=this.i=null}return this}},{key:"resetSelf",value:function(){var t=arguments.length>0&&void 0!==arguments[0]?arguments[0]:1,n=arguments.length>1&&void 0!==arguments[1]?arguments[1]:0,e=arguments.length>2&&void 0!==arguments[2]?arguments[2]:0,r=arguments.length>3&&void 0!==arguments[3]?arguments[3]:1,i=arguments.length>4&&void 0!==arguments[4]?arguments[4]:0,u=arguments.length>5&&void 0!==arguments[5]?arguments[5]:0,o=this.m;return o[0]=t,o[1]=n,o[2]=e,o[3]=r,o[4]=i,o[5]=u,this.w=this.s=this.i=null,this}},{key:"recomposeSelf",value:function(){var t=arguments.length>0&&void 0!==arguments[0]?arguments[0]:null,n=arguments.length>1&&void 0!==arguments[1]?arguments[1]:null,e=arguments.length>2&&void 0!==arguments[2]?arguments[2]:null,r=arguments.length>3&&void 0!==arguments[3]?arguments[3]:null,i=arguments.length>4&&void 0!==arguments[4]?arguments[4]:null;return this.isIdentity||this.resetSelf(),t&&(t.x||t.y)&&this.translateSelf(t.x,t.y),n&&this.rotateSelf(n),e&&(e.x&&this.skewSelf(e.x,0),e.y&&this.skewSelf(0,e.y)),!r||1===r.x&&1===r.y||this.scaleSelf(r.x,r.y),i&&(i.x||i.y)&&this.translateSelf(i.x,i.y),this}},{key:"decompose",value:function(){var t=arguments.length>0&&void 0!==arguments[0]?arguments[0]:0,n=arguments.length>1&&void 0!==arguments[1]?arguments[1]:0,e=this.m,r=e[0]*e[0]+e[1]*e[1],i=[[e[0],e[1]],[e[2],e[3]]],u=F(r);if(0===u)return{origin:{x:d(e[4]),y:d(e[5])},translate:{x:d(t),y:d(n)},scale:{x:0,y:0},skew:{x:0,y:0},rotate:0};i[0][0]/=u,i[0][1]/=u;var o=e[0]*e[3]-e[1]*e[2]<0;o&&(u=-u);var a=i[0][0]*i[1][0]+i[0][1]*i[1][1];i[1][0]-=i[0][0]*a,i[1][1]-=i[0][1]*a;var l=F(i[1][0]*i[1][0]+i[1][1]*i[1][1]);if(0===l)return{origin:{x:d(e[4]),y:d(e[5])},translate:{x:d(t),y:d(n)},scale:{x:d(u),y:0},skew:{x:0,y:0},rotate:0};i[1][0]/=l,i[1][1]/=l,a/=l;var s=0;return i[1][1]<0?(s=j(i[1][1])*R,i[0][1]<0&&(s=360-s)):s=M(i[0][1])*R,o&&(s=-s),a=E(a,F(i[0][0]*i[0][0]+i[0][1]*i[0][1]))*R,o&&(a=-a),{origin:{x:d(e[4]),y:d(e[5])},translate:{x:d(t),y:d(n)},scale:{x:d(u),y:d(l)},skew:{x:d(a),y:0},rotate:d(s)}}},{key:"clone",value:function(){var t=this.m;return new this.constructor(t[0],t[1],t[2],t[3],t[4],t[5])}},{key:"toString",value:function(){var t=arguments.length>0&&void 0!==arguments[0]?arguments[0]:" ";if(null===this.s){var n=this.m.map((function(t){return d(t)}));1===n[0]&&0===n[1]&&0===n[2]&&1===n[3]?this.s="translate("+n[4]+t+n[5]+")":this.s="matrix("+n.join(t)+")"}return this.s}}],[{key:"create",value:function(t){return t?Array.isArray(t)?f(this,v(t)):t instanceof this?t.clone():(new this).recomposeSelf(t.origin,t.rotate,t.skew,t.scale,t.translate):new this}}]),t}();function T(t,n,e){return t>=.5?e:n}function q(t,n,e){return 0===t||n===e?n:t*(e-n)+n}function B(t,n,e){var r=q(t,n,e);return r<=0?0:r}function L(t,n,e){var r=q(t,n,e);return r<=0?0:r>=1?1:r}function C(t,n,e){return 0===t?n:1===t?e:{x:q(t,n.x,e.x),y:q(t,n.y,e.y)}}function D(t,n,e){var r=function(t,n,e){return Math.round(q(t,n,e))}(t,n,e);return r<=0?0:r>=255?255:r}function z(t,n,e){return 0===t?n:1===t?e:{r:D(t,n.r,e.r),g:D(t,n.g,e.g),b:D(t,n.b,e.b),a:q(t,null==n.a?1:n.a,null==e.a?1:e.a)}}function V(t,n){for(var e=[],r=0;r<t;r++)e.push(n);return e}function G(t,n){if(--n<=0)return t;var e=(t=Object.assign([],t)).length;do{for(var r=0;r<e;r++)t.push(t[r])}while(--n>0);return t}var Y,$=function(){function t(n){r(this,t),this.list=n,this.length=n.length}return u(t,[{key:"setAttribute",value:function(t,n){for(var e=this.list,r=0;r<this.length;r++)e[r].setAttribute(t,n)}},{key:"removeAttribute",value:function(t){for(var n=this.list,e=0;e<this.length;e++)n[e].removeAttribute(t)}},{key:"style",value:function(t,n){for(var e=this.list,r=0;r<this.length;r++)e[r].style[t]=n}}]),t}(),U=/-./g,Q=function(t,n){return n.toUpperCase()};function H(t){return"function"==typeof t?t:T}function J(t){return t?"function"==typeof t?t:Array.isArray(t)?function(t){var n=arguments.length>1&&void 0!==arguments[1]?arguments[1]:b;if(!Array.isArray(t))return n;switch(t.length){case 1:return _(t[0])||n;case 2:return _(t[0],t[1])||n;case 4:return x(t[0],t[1],t[2],t[3])||n}return n}(t,null):function(t,n){var e=arguments.length>2&&void 0!==arguments[2]?arguments[2]:b;switch(t){case"linear":return b;case"steps":return _(n.steps||1,n.jump||0)||e;case"bezier":case"cubic-bezier":return x(n.x1||0,n.y1||0,n.x2||0,n.y2||0)||e}return e}(t.type,t.value,null):null}function Z(t,n,e){var r=arguments.length>3&&void 0!==arguments[3]&&arguments[3],i=n.length-1;if(t<=n[0].t)return r?[0,0,n[0].v]:n[0].v;if(t>=n[i].t)return r?[i,1,n[i].v]:n[i].v;var u,o=n[0],a=null;for(u=1;u<=i;u++){if(!(t>n[u].t)){a=n[u];break}o=n[u]}return null==a?r?[i,1,n[i].v]:n[i].v:o.t===a.t?r?[u,1,a.v]:a.v:(t=(t-o.t)/(a.t-o.t),o.e&&(t=o.e(t)),r?[u,t,e(t,o.v,a.v)]:e(t,o.v,a.v))}function K(t,n){var e=arguments.length>2&&void 0!==arguments[2]?arguments[2]:null;return t&&t.length?"function"!=typeof n?null:("function"!=typeof e&&(e=null),function(r){var i=Z(r,t,n);return null!=i&&e&&(i=e(i)),i}):null}function W(t,n){return t.t-n.t}function X(t,n,r,i,u){var o,a="@"===r[0],l="#"===r[0],s=Y[r],f=T;switch(a?(o=r.substr(1),r=o.replace(U,Q)):l&&(r=r.substr(1)),e(s)){case"function":if(f=s(i,u,Z,J,r,a,n,t),l)return f;break;case"string":f=K(i,H(s));break;case"object":if((f=K(i,H(s.i),s.f))&&"function"==typeof s.u)return s.u(n,f,r,a,t)}return f?function(t,n,e){if(arguments.length>3&&void 0!==arguments[3]&&arguments[3])return t instanceof $?function(r){return t.style(n,e(r))}:function(r){return t.style[n]=e(r)};if(Array.isArray(n)){var r=n.length;return function(i){var u=e(i);if(null==u)for(var o=0;o<r;o++)t[o].removeAttribute(n);else for(var a=0;a<r;a++)t[a].setAttribute(n,u)}}return function(r){var i=e(r);null==i?t.removeAttribute(n):t.setAttribute(n,i)}}(n,r,f,a):null}function tt(t,n,r,i){if(!i||"object"!==e(i))return null;var u=null,o=null;return Array.isArray(i)?o=function(t){if(!t||!t.length)return null;for(var n=0;n<t.length;n++)t[n].e&&(t[n].e=J(t[n].e));return t.sort(W)}(i):(o=i.keys,u=i.data||null),o?X(t,n,r,o,u):null}function nt(t,n,e){if(!e)return null;var r=[];for(var i in e)if(e.hasOwnProperty(i)){var u=tt(t,n,i,e[i]);u&&r.push(u)}return r.length?r:null}function et(t,n){if(!n.settings.duration||n.settings.duration<0)return null;var e,r,i,u,o,a=function(t,n){if(!n)return null;var e=[];if(Array.isArray(n))for(var r=n.length,i=0;i<r;i++){var u=n[i];if(2===u.length){var o=null;if("string"==typeof u[0])o=t.getElementById(u[0]);else if(Array.isArray(u[0])){o=[];for(var a=0;a<u[0].length;a++)if("string"==typeof u[0][a]){var l=t.getElementById(u[0][a]);l&&o.push(l)}o=o.length?1===o.length?o[0]:new $(o):null}if(o){var s=nt(t,o,u[1]);s&&(e=e.concat(s))}}}else for(var f in n)if(n.hasOwnProperty(f)){var c=t.getElementById(f);if(c){var h=nt(t,c,n[f]);h&&(e=e.concat(h))}}return e.length?e:null}(t,n.elements);return a?(e=a,r=n.settings,i=r.duration,u=e.length,o=null,function(t,n){var a=r.iterations||1/0,l=(r.alternate&&a%2==0)^r.direction>0?i:0,s=t%i,f=1+(t-s)/i;n*=r.direction,r.alternate&&f%2==0&&(n=-n);var c=!1;if(f>a)s=l,c=!0,-1===r.fill&&(s=r.direction>0?0:i);else if(n<0&&(s=i-s),s===o)return!1;o=s;for(var h=0;h<u;h++)e[h](s);return c}):null}function rt(t,n){if(Y=n,!t||!t.root||!Array.isArray(t.animations))return null;var e=function(t){for(var n=document.getElementsByTagName("svg"),e=0;e<n.length;e++)if(n[e].id===t.root&&!n[e].svgatorAnimation)return n[e].svgatorAnimation=!0,n[e];return null}(t);if(!e)return null;var r=t.animations.map((function(t){return et(e,t)})).filter((function(t){return!!t}));return r.length?{svg:e,animations:r,animationSettings:t.animationSettings,options:t.options||void 0}:null}function it(t){return+("0x"+(t.replace(/[^0-9a-fA-F]+/g,"")||27))}function ut(t,n,e){return!t||!e||n>t.length?t:t.substring(0,n)+ut(t.substring(n+1),e,e)}function ot(t){var n=arguments.length>1&&void 0!==arguments[1]?arguments[1]:27;return!t||t%n?t%n:ot(t/n,n)}function at(t,n,e){if(t&&t.length){var r=it(e),i=it(n),u=ot(r)+5,o=ut(t,ot(r,5),u);return o=o.replace(/\x7c$/g,"==").replace(/\x2f$/g,"="),o=function(t,n,e){var r=+("0x"+t.substring(0,4));t=t.substring(4);for(var i=n%r+e%27,u=[],o=0;o<t.length;o+=2)if("|"!==t[o]){var a=+("0x"+t[o]+t[o+1])-i;u.push(a)}else{var l=+("0x"+t.substring(o+1,o+1+4))-i;o+=3,u.push(l)}return String.fromCharCode.apply(String,u)}(o=(o=atob(o)).replace(/[\x41-\x5A]/g,""),i,r),o=JSON.parse(o)}}var lt=[{key:"alternate",def:!1},{key:"fill",def:1},{key:"iterations",def:0},{key:"direction",def:1},{key:"speed",def:1},{key:"fps",def:100}],st=function(){function t(n,e){var i=this,u=arguments.length>2&&void 0!==arguments[2]?arguments[2]:null;r(this,t),this._id=0,this._running=!1,this._rollingBack=!1,this._animations=n,this._settings=e,(!u||u<"2022-05-02")&&delete this._settings.speed,lt.forEach((function(t){i._settings[t.key]=i._settings[t.key]||t.def})),this.duration=e.duration,this.offset=e.offset||0,this.rollbackStartOffset=0}return u(t,[{key:"alternate",get:function(){return this._settings.alternate}},{key:"fill",get:function(){return this._settings.fill}},{key:"iterations",get:function(){return this._settings.iterations}},{key:"direction",get:function(){return this._settings.direction}},{key:"speed",get:function(){return this._settings.speed}},{key:"fps",get:function(){return this._settings.fps}},{key:"maxFiniteDuration",get:function(){return this.iterations>0?this.iterations*this.duration:this.duration}},{key:"_apply",value:function(t){for(var n=arguments.length>1&&void 0!==arguments[1]?arguments[1]:{},e=this._animations,r=e.length,i=0,u=0;u<r;u++)n[u]?i++:(n[u]=e[u](t,1),n[u]&&i++);return i}},{key:"_rollback",value:function(t){var n=this,e=1/0,r=null;this.rollbackStartOffset=t,this._rollingBack=!0,this._running=!0;this._id=window.requestAnimationFrame((function i(u){if(n._rollingBack){null==r&&(r=u);var o=Math.round(t-(u-r)*n.speed);if(o>n.duration&&e!==1/0){var a=!!n.alternate&&o/n.duration%2>1,l=o%n.duration;o=(l+=a?n.duration:0)||n.duration}var s=(n.fps?1e3/n.fps:0)*n.speed,f=Math.max(0,o);f<e-s&&(n.offset=f,e=f,n._apply(f));var c=n.iterations>0&&-1===n.fill&&o>=n.maxFiniteDuration;(o<=0||n.offset<o||c)&&n.stop(),n._id=window.requestAnimationFrame(i)}}))}},{key:"_start",value:function(){var t=this,n=arguments.length>0&&void 0!==arguments[0]?arguments[0]:0,e=-1/0,r=null,i={};this._running=!0;var u=function u(o){null==r&&(r=o);var a=Math.round((o-r)*t.speed+n),l=(t.fps?1e3/t.fps:0)*t.speed;if(a>e+l&&!t._rollingBack&&(t.offset=a,e=a,t._apply(a,i)===t._animations.length))return void t.pause(!0);t._id=window.requestAnimationFrame(u)};this._id=window.requestAnimationFrame(u)}},{key:"_pause",value:function(){this._id&&window.cancelAnimationFrame(this._id),this._running=!1}},{key:"play",value:function(){if(!this._running)return this._rollingBack?this._rollback(this.offset):this._start(this.offset)}},{key:"stop",value:function(){this._pause(),this.offset=0,this.rollbackStartOffset=0,this._rollingBack=!1,this._apply(0)}},{key:"reachedToEnd",value:function(){return this.iterations>0&&this.offset>=this.iterations*this.duration}},{key:"restart",value:function(){var t=arguments.length>0&&void 0!==arguments[0]&&arguments[0];this.stop(t),this.play(t)}},{key:"pause",value:function(){this._pause()}},{key:"reverse",value:function(){this.direction=-this.direction}}],[{key:"build",value:function(t,n){delete t.animationSettings,t.options=at(t.options,t.root,"5c7f360c"),t.animations.map((function(n){n.settings=at(n.s,t.root,"5c7f360c"),delete n.s,t.animationSettings||(t.animationSettings=n.settings)}));var e=t.version;if(!(t=rt(t,n)))return null;var r=t.options||{},i=new this(t.animations,t.animationSettings,e);return{el:t.svg,options:r,player:i}}},{key:"push",value:function(t){return this.build(t)}},{key:"init",value:function(){var t=this,n=window.__SVGATOR_PLAYER__&&window.__SVGATOR_PLAYER__["5c7f360c"];Array.isArray(n)&&n.splice(0).forEach((function(n){return t.build(n)}))}}]),t}();function ft(t){return d(t)+""}function ct(t){var n=arguments.length>1&&void 0!==arguments[1]?arguments[1]:" ";return t&&t.length?t.map(ft).join(n):""}function ht(t){if(!t)return"transparent";if(null==t.a||t.a>=1){var n=function(t){return 1===(t=parseInt(t).toString(16)).length?"0"+t:t},e=function(t){return t.charAt(0)===t.charAt(1)},r=n(t.r),i=n(t.g),u=n(t.b);return e(r)&&e(i)&&e(u)&&(r=r.charAt(0),i=i.charAt(0),u=u.charAt(0)),"#"+r+i+u}return"rgba("+t.r+","+t.g+","+t.b+","+t.a+")"}function vt(t){return t?"url(#"+t+")":"none"}!function(){for(var t=0,n=["ms","moz","webkit","o"],e=0;e<n.length&&!window.requestAnimationFrame;++e)window.requestAnimationFrame=window[n[e]+"RequestAnimationFrame"],window.cancelAnimationFrame=window[n[e]+"CancelAnimationFrame"]||window[n[e]+"CancelRequestAnimationFrame"];window.requestAnimationFrame||(window.requestAnimationFrame=function(n){var e=Date.now(),r=Math.max(0,16-(e-t)),i=window.setTimeout((function(){n(e+r)}),r);return t=e+r,i},window.cancelAnimationFrame=window.clearTimeout)}();var yt={f:null,i:function(t,n,e){return 0===t?n:1===t?e:{x:B(t,n.x,e.x),y:B(t,n.y,e.y)}},u:function(t,n){return function(e){var r=n(e);t.setAttribute("rx",ft(r.x)),t.setAttribute("ry",ft(r.y))}}},gt={f:null,i:function(t,n,e){return 0===t?n:1===t?e:{width:B(t,n.width,e.width),height:B(t,n.height,e.height)}},u:function(t,n){return function(e){var r=n(e);t.setAttribute("width",ft(r.width)),t.setAttribute("height",ft(r.height))}}};Object.freeze({M:2,L:2,Z:0,H:1,V:1,C:6,Q:4,T:2,S:4,A:7});var dt={},pt=null;function mt(t){var n=function(){if(pt)return pt;if("object"!==("undefined"==typeof document?"undefined":e(document))||!document.createElementNS)return{};var t=document.createElementNS("http://www.w3.org/2000/svg","svg");return t&&t.style?(t.style.position="absolute",t.style.opacity="0.01",t.style.zIndex="-9999",t.style.left="-9999px",t.style.width="1px",t.style.height="1px",pt={svg:t}):{}}().svg;if(!n)return function(t){return null};var r=document.createElementNS(n.namespaceURI,"path");r.setAttributeNS(null,"d",t),r.setAttributeNS(null,"fill","none"),r.setAttributeNS(null,"stroke","none"),n.appendChild(r);var i=r.getTotalLength();return function(t){var n=r.getPointAtLength(i*t);return{x:n.x,y:n.y}}}function bt(t){return dt[t]?dt[t]:dt[t]=mt(t)}function wt(t,n,e,r){if(!t||!r)return!1;var i=["M",t.x,t.y];if(n&&e&&(i.push("C"),i.push(n.x),i.push(n.y),i.push(e.x),i.push(e.y)),n?!e:e){var u=n||e;i.push("Q"),i.push(u.x),i.push(u.y)}return n||e||i.push("L"),i.push(r.x),i.push(r.y),i.join(" ")}function xt(t,n,e,r){var i=arguments.length>4&&void 0!==arguments[4]?arguments[4]:1,u=wt(t,n,e,r),o=bt(u);try{return o(i)}catch(t){return null}}function At(t,n,e){return t+(n-t)*e}function kt(t,n,e){var r=arguments.length>3&&void 0!==arguments[3]&&arguments[3],i={x:At(t.x,n.x,e),y:At(t.y,n.y,e)};return r&&(i.a=_t(t,n)),i}function _t(t,n){return Math.atan2(n.y-t.y,n.x-t.x)}function St(t,n,e,r){var i=1-r;return i*i*t+2*i*r*n+r*r*e}function Ot(t,n,e,r){return 2*(1-r)*(n-t)+2*r*(e-n)}function jt(t,n,e,r){var i=arguments.length>4&&void 0!==arguments[4]&&arguments[4],u=xt(t,n,null,e,r);return u||(u={x:St(t.x,n.x,e.x,r),y:St(t.y,n.y,e.y,r)}),i&&(u.a=Mt(t,n,e,r)),u}function Mt(t,n,e,r){return Math.atan2(Ot(t.y,n.y,e.y,r),Ot(t.x,n.x,e.x,r))}function Pt(t,n,e,r,i){var u=i*i;return i*u*(r-t+3*(n-e))+3*u*(t+e-2*n)+3*i*(n-t)+t}function Et(t,n,e,r,i){var u=1-i;return 3*(u*u*(n-t)+2*u*i*(e-n)+i*i*(r-e))}function It(t,n,e,r,i){var u=arguments.length>5&&void 0!==arguments[5]&&arguments[5],o=xt(t,n,e,r,i);return o||(o={x:Pt(t.x,n.x,e.x,r.x,i),y:Pt(t.y,n.y,e.y,r.y,i)}),u&&(o.a=Rt(t,n,e,r,i)),o}function Rt(t,n,e,r,i){return Math.atan2(Et(t.y,n.y,e.y,r.y,i),Et(t.x,n.x,e.x,r.x,i))}function Ft(t,n,e){var r=arguments.length>3&&void 0!==arguments[3]&&arguments[3];if(Tt(n)){if(qt(e))return jt(n,e.start,e,t,r)}else if(Tt(e)){if(Bt(n))return jt(n,n.end,e,t,r)}else{if(Bt(n))return qt(e)?It(n,n.end,e.start,e,t,r):jt(n,n.end,e,t,r);if(qt(e))return jt(n,e.start,e,t,r)}return kt(n,e,t,r)}function Nt(t,n,e){var r=Ft(t,n,e,!0);return r.a=function(t){return arguments.length>1&&void 0!==arguments[1]&&arguments[1]?t+Math.PI:t}(r.a)/m,r}function Tt(t){return!t.type||"corner"===t.type}function qt(t){return null!=t.start&&!Tt(t)}function Bt(t){return null!=t.end&&!Tt(t)}var Lt=new N;var Ct={f:ft,i:q},Dt={f:ft,i:L};function zt(t,n,e){return t.map((function(t){return function(t,n,e){var r=t.v;if(!r||"g"!==r.t||r.s||!r.v||!r.r)return t;var i=e.getElementById(r.r),u=i&&i.querySelectorAll("stop")||[];return r.s=r.v.map((function(t,n){var e=u[n]&&u[n].getAttribute("offset");return{c:t,o:e=d(parseInt(e)/100)}})),delete r.v,t}(t,0,e)}))}var Vt={gt:"gradientTransform",c:{x:"cx",y:"cy"},rd:"r",f:{x:"x1",y:"y1"},to:{x:"x2",y:"y2"}};function Gt(t,n,r,i,u,o,a,l){return zt(t,0,l),n=function(t,n,e){for(var r,i,u,o=t.length-1,a={},l=0;l<=o;l++)(r=t[l]).e&&(r.e=n(r.e)),r.v&&"g"===(i=r.v).t&&i.r&&(u=e.getElementById(i.r))&&(a[i.r]={e:u,s:u.querySelectorAll("stop")});return a}(t,i,l),function(i){var u=r(i,t,Yt);if(!u)return"none";if("c"===u.t)return ht(u.v);if("g"===u.t){if(!n[u.r])return vt(u.r);var o=n[u.r];return function(t,n){for(var e=t.s,r=e.length;r<n.length;r++){var i=e[e.length-1].cloneNode();i.id=Qt(i.id),t.e.appendChild(i),e=t.s=t.e.querySelectorAll("stop")}for(var u=0,o=e.length,a=n.length-1;u<o;u++)e[u].setAttribute("stop-color",ht(n[Math.min(u,a)].c)),e[u].setAttribute("offset",n[Math.min(u,a)].o)}(o,u.s),Object.keys(Vt).forEach((function(t){if(void 0!==u[t])if("object"!==e(Vt[t])){var n,r="gt"===t?(n=u[t],Array.isArray(n)?"matrix("+n.join(" ")+")":""):u[t],i=Vt[t];o.e.setAttribute(i,r)}else Object.keys(Vt[t]).forEach((function(n){if(void 0!==u[t][n]){var e=u[t][n],r=Vt[t][n];o.e.setAttribute(r,e)}}))})),vt(u.r)}return"none"}}function Yt(t,e,r){if(0===t)return e;if(1===t)return r;if(e&&r){var i=e.t;if(i===r.t)switch(e.t){case"c":return{t:i,v:z(t,e.v,r.v)};case"g":if(e.r===r.r){var u={t:i,s:$t(t,e.s,r.s),r:e.r};return e.gt&&r.gt&&(u.gt=function(t,n,e){var r=n.length;if(r!==e.length)return T(t,n,e);for(var i=new Array(r),u=0;u<r;u++)i[u]=q(t,n[u],e[u]);return i}(t,e.gt,r.gt)),e.c?(u.c=C(t,e.c,r.c),u.rd=B(t,e.rd,r.rd)):e.f&&(u.f=C(t,e.f,r.f),u.to=C(t,e.to,r.to)),u}}if("c"===e.t&&"g"===r.t||"c"===r.t&&"g"===e.t){var o="c"===e.t?e:r,a="g"===e.t?n({},e):n({},r),l=a.s.map((function(t){return{c:o.v,o:t.o}}));return a.s="c"===e.t?$t(t,l,a.s):$t(t,a.s,l),a}}return T(t,e,r)}function $t(t,n,e){if(n.length===e.length)return n.map((function(n,r){return Ut(t,n,e[r])}));for(var r=Math.max(n.length,e.length),i=[],u=0;u<r;u++){var o=Ut(t,n[Math.min(u,n.length-1)],e[Math.min(u,e.length-1)]);i.push(o)}return i}function Ut(t,n,e){return{o:L(t,n.o,e.o||0),c:z(t,n.c,e.c||{})}}function Qt(t){return t.replace(/-fill-([0-9]+)$/,(function(t,n){return"-fill-"+(+n+1)}))}var Ht={fill:Gt,"fill-opacity":Dt,stroke:Gt,"stroke-opacity":Dt,"stroke-width":Ct,"stroke-dashoffset":{f:ft,i:q},"stroke-dasharray":{f:function(t){var n=arguments.length>1&&void 0!==arguments[1]?arguments[1]:" ";return t&&t.length>0&&(t=t.map((function(t){return d(t,4)}))),ct(t,n)},i:function(t,n,e){var r,i,u,o=n.length,a=e.length;if(o!==a)if(0===o)n=V(o=a,0);else if(0===a)a=o,e=V(o,0);else{var l=(u=(r=o)*(i=a)/function(t,n){for(var e;n;)e=n,n=t%n,t=e;return t||1}(r,i))<0?-u:u;n=G(n,Math.floor(l/o)),e=G(e,Math.floor(l/a)),o=a=l}for(var s=[],f=0;f<o;f++)s.push(d(B(t,n[f],e[f])));return s}},opacity:Dt,transform:function(t,n,r,i){if(!(t=function(t,n){if(!t||"object"!==e(t))return null;var r=!1;for(var i in t)t.hasOwnProperty(i)&&(t[i]&&t[i].length?(t[i].forEach((function(t){t.e&&(t.e=n(t.e))})),r=!0):delete t[i]);return r?t:null}(t,i)))return null;var u=function(e,i,u){var o=arguments.length>3&&void 0!==arguments[3]?arguments[3]:null;return t[e]?r(i,t[e],u):n&&n[e]?n[e]:o};return n&&n.a&&t.o?function(n){var e=r(n,t.o,Nt);return Lt.recomposeSelf(e,u("r",n,q,0)+e.a,u("k",n,C),u("s",n,C),u("t",n,C)).toString()}:function(t){return Lt.recomposeSelf(u("o",t,Ft,null),u("r",t,q,0),u("k",t,C),u("s",t,C),u("t",t,C)).toString()}},r:Ct,"#size":gt,"#radius":yt,_:function(t,n){if(Array.isArray(t))for(var e=0;e<t.length;e++)this[t[e]]=n;else this[t]=n}},Jt=function(t){!function(t,n){if("function"!=typeof n&&null!==n)throw new TypeError("Super expression must either be null or a function");t.prototype=Object.create(n&&n.prototype,{constructor:{value:t,writable:!0,configurable:!0}}),n&&l(t,n)}(o,t);var n,e,i=(n=o,e=s(),function(){var t,r=a(n);if(e){var i=a(this).constructor;t=Reflect.construct(r,arguments,i)}else t=r.apply(this,arguments);return c(this,t)});function o(){return r(this,o),i.apply(this,arguments)}return u(o,null,[{key:"build",value:function(t){var n=h(a(o),"build",this).call(this,t,Ht);if(!n)return null;n.el,n.options,function(t,n,e){t.play()}(n.player)}}]),o}(st);return Jt.init(),Jt}));
(function(s,i,o,w,a,b){w[o]=w[o]||{};w[o][s]=w[o][s]||[];w[o][s].push(i);})('5c7f360c',{"root":"eTf6pF1EWwd1","version":"2022-05-04","animations":[{"elements":{"eTf6pF1EWwd2":{"transform":{"data":{"t":{"x":-226.3647,"y":-313.894669}},"keys":{"o":[{"t":0,"v":{"x":226.3647,"y":295.89,"type":"corner"}},{"t":300,"v":{"x":226.3647,"y":313.894669,"type":"corner"}}]}},"opacity":[{"t":0,"v":0},{"t":200,"v":1}]},"eTf6pF1EWwd6":{"transform":{"data":{"t":{"x":-233.38533,"y":-306.394608}},"keys":{"o":[{"t":200,"v":{"x":233.38533,"y":286.39,"type":"corner"}},{"t":500,"v":{"x":233.38533,"y":306.394608,"type":"corner"}}]}},"opacity":[{"t":200,"v":0},{"t":400,"v":1}]},"eTf6pF1EWwd13":{"transform":{"data":{"t":{"x":-133.378937,"y":-404.143555}},"keys":{"o":[{"t":200,"v":{"x":133.378937,"y":384.14,"type":"corner"}},{"t":500,"v":{"x":133.378937,"y":404.143555,"type":"corner"}}]}},"opacity":[{"t":200,"v":0},{"t":400,"v":1}]},"eTf6pF1EWwd16":{"transform":{"data":{"t":{"x":-368.309647,"y":-311.943565}},"keys":{"o":[{"t":200,"v":{"x":368.309647,"y":291.94,"type":"corner"}},{"t":500,"v":{"x":368.309647,"y":311.943565,"type":"corner"}}]}},"opacity":[{"t":200,"v":0},{"t":400,"v":1}]},"eTf6pF1EWwd18":{"transform":{"data":{"t":{"x":-238.990845,"y":-346.881332}},"keys":{"o":[{"t":300,"v":{"x":238.990845,"y":326.88,"type":"corner"}},{"t":600,"v":{"x":238.990845,"y":346.881332,"type":"corner"}}]}},"opacity":[{"t":300,"v":0},{"t":500,"v":1}]},"eTf6pF1EWwd20":{"transform":{"data":{"t":{"x":-240.200012,"y":-297.250031}},"keys":{"o":[{"t":300,"v":{"x":240.200012,"y":277.25,"type":"corner"}},{"t":600,"v":{"x":240.200012,"y":297.250031,"type":"corner"}}]}},"opacity":[{"t":300,"v":0},{"t":500,"v":1}]},"eTf6pF1EWwd22":{"transform":{"data":{"t":{"x":-240.199997,"y":-263.200005}},"keys":{"o":[{"t":400,"v":{"x":240.199997,"y":243.2,"type":"corner"}},{"t":700,"v":{"x":240.199997,"y":263.200005,"type":"corner"}}]}},"opacity":[{"t":400,"v":0},{"t":600,"v":1}]},"eTf6pF1EWwd24":{"transform":{"data":{"t":{"x":-240.200005,"y":-275.899994}},"keys":{"o":[{"t":500,"v":{"x":240.200005,"y":255.9,"type":"corner"}},{"t":800,"v":{"x":240.200005,"y":275.899994,"type":"corner"}}]}},"opacity":[{"t":500,"v":0},{"t":700,"v":1}]},"eTf6pF1EWwd26":{"transform":{"data":{"t":{"x":-240.200005,"y":-256.899994}},"keys":{"o":[{"t":600,"v":{"x":240.200005,"y":236.9,"type":"corner"}},{"t":900,"v":{"x":240.200005,"y":256.899994,"type":"corner"}}]}},"opacity":[{"t":600,"v":0},{"t":800,"v":1}]},"eTf6pF1EWwd28":{"transform":{"data":{"t":{"x":-240.200005,"y":-240.850006}},"keys":{"o":[{"t":700,"v":{"x":240.200005,"y":220.85,"type":"corner"}},{"t":1000,"v":{"x":240.200005,"y":240.850006,"type":"corner"}}]}},"opacity":[{"t":700,"v":0},{"t":900,"v":1}]},"eTf6pF1EWwd31":{"transform":{"data":{"t":{"x":-240.350006,"y":-188.250008}},"keys":{"o":[{"t":700,"v":{"x":240.350006,"y":168.25,"type":"corner"}},{"t":1000,"v":{"x":240.350006,"y":188.250008,"type":"corner"}}]}},"opacity":[{"t":700,"v":0},{"t":900,"v":1}]},"eTf6pF1EWwd34":{"transform":{"data":{"t":{"x":-244.356339,"y":-144.250023}},"keys":{"o":[{"t":800,"v":{"x":244.356339,"y":124.25,"type":"corner"}},{"t":1100,"v":{"x":244.356339,"y":144.250023,"type":"corner"}}]}},"opacity":[{"t":800,"v":0},{"t":1000,"v":1}]},"eTf6pF1EWwd39":{"transform":{"data":{"t":{"x":-240.199997,"y":-149}},"keys":{"o":[{"t":800,"v":{"x":240.199997,"y":129,"type":"corner"}},{"t":1100,"v":{"x":240.199997,"y":149,"type":"corner"}}]}},"opacity":[{"t":800,"v":0},{"t":1000,"v":1}]},"eTf6pF1EWwd41":{"transform":{"data":{"t":{"x":-233.450005,"y":-326.099991}},"keys":{"o":[{"t":1100,"v":{"x":233.450005,"y":306.1,"type":"corner"}},{"t":1500,"v":{"x":233.450005,"y":326.099991,"type":"corner"}}]}},"opacity":[{"t":1100,"v":0},{"t":1400,"v":1}]},"eTf6pF1EWwd49":{"transform":{"data":{"t":{"x":-240.299995,"y":-131.89999}},"keys":{"o":[{"t":900,"v":{"x":240.299995,"y":111.9,"type":"corner"}},{"t":1200,"v":{"x":240.299995,"y":131.89999,"type":"corner"}}]}},"opacity":[{"t":900,"v":0},{"t":1100,"v":1}]},"eTf6pF1EWwd53":{"transform":{"data":{"t":{"x":-325.299988,"y":-101.900002}},"keys":{"o":[{"t":1400,"v":{"x":325.299988,"y":81.9,"type":"corner"}},{"t":1700,"v":{"x":325.299988,"y":101.900002,"type":"corner"}}]}},"opacity":[{"t":1400,"v":0},{"t":1600,"v":1}]},"eTf6pF1EWwd55":{"transform":{"data":{"t":{"x":-278.588699,"y":-196.300003}},"keys":{"o":[{"t":1600,"v":{"x":278.588699,"y":176.3,"type":"corner"}},{"t":1900,"v":{"x":278.588699,"y":196.300003,"type":"corner"}}]}},"opacity":[{"t":1600,"v":0},{"t":1800,"v":1}]}},"s":"MADA1MzljNDM4NTk2OTKM4Mjk1OGE5MDhmNDMO1YjUzRjUyNTE1MTRkYNDM4NThhOTM4Njg0OTTU4YVI5MDhmNDM1YjEUyNGQ0MzhhOTU4NjkDzODI5NThhOTA4Zjk0SNDM1YjUyNGQ0Mzg3SYjhhOGQ4ZDQzRDViNTOI0ZDQzODJUOGQ5NUcC4NjkzOGY4Mjk1ODY0DMzViODc4MjhkOTQ4NOjRkNDM5NDkxODY4NjQg1NDM1YjUyOWU/"}],"options":"MEDAxMDg4MmY4MFU4MTYZlN2Y4MTJmNDcyZjcK5N2M2ZTcxMmY4YQ|"},'__SVGATOR_PLAYER__',window)
]]></script>
</svg>
